<?xml version="1.0" encoding="utf-8"?>
<svg xmlns="http://www.w3.org/2000/svg" viewBox="0 0 24 24" fill="none" stroke="#2C1810" stroke-width="2" stroke-linecap="round" stroke-linejoin="round">
  <rect x="4" y="6" width="16" height="2" rx="1"/>
  <rect x="4" y="11" width="16" height="2" rx="1"/>
  <rect x="4" y="16" width="16" height="2" rx="1"/>
  <path d="M8 6c0-1.5.5-2 2-2h4c1.5 0 2 .5 2 2"/>
  <path d="M8 11c0-1.5.5-2 2-2h4c1.5 0 2 .5 2 2"/>
  <path d="M8 16c0-1.5.5-2 2-2h4c1.5 0 2 .5 2 2"/>
</svg>